<?xml version="1.0" encoding="UTF-8"?>
<svg id="Layer_1" xmlns="http://www.w3.org/2000/svg" version="1.1" viewBox="0 0 32 32">
  <!-- Generator: Adobe Illustrator 30.3.0, SVG Export Plug-In . SVG Version: 2.1.3 Build 182)  -->
  <defs>
    <style>
      .st0 {
        fill: #ece8f9;
      }
    </style>
  </defs>
  <path class="st0" d="M7.75,11.67l-.03.02c-.55.4-.97.92-1.24,1.51-.28.6-.4,1.28-.34,1.97.1,1.05.62,1.97,1.37,2.6.76.63,1.76.97,2.81.87h0c1.05-.1,1.97-.62,2.6-1.37.63-.76.97-1.76.87-2.81h0c-.03-.33-.11-.66-.22-.98-.11-.3-.26-.59-.44-.85l-.02-.03c-.4-.57-.73-1.19-.97-1.84-.1-.26-.18-.52-.25-.79-.47.08-.92.19-1.37.33-.98.31-1.92.78-2.78,1.38h.01ZM21.34,11.33l8.2,3.37c.37.15.55.58.39.95-.08.2-.25.35-.45.41l-2.72.89,2.08.48h0c.17.04.33.14.44.3.22.33.14.78-.19,1l-4.02,2.73c-.34,2.58-1.54,4.89-3.29,6.64-2.09,2.09-4.99,3.39-8.18,3.39s-6.09-1.3-8.18-3.39c-2.09-2.09-3.39-4.99-3.39-8.18,0-.21,0-.44.02-.69,0-.24.04-.47.06-.69.05-.4.41-.68.81-.64.13.02.25.07.35.14h0v.02h0c.05.07.1.12.14.19.74,1.27,1.81,2.26,3.07,2.91,1.25.65,2.69.94,4.15.8.32-.03.65-.08.97-.16.31-.07.63-.17.95-.28.38-.14.79.06.93.43.14.38-.06.79-.43.93-.36.13-.74.25-1.13.33-.38.09-.77.15-1.16.18-1.74.16-3.45-.19-4.95-.96-.87-.45-1.67-1.04-2.35-1.75.19,2.48,1.28,4.71,2.93,6.37,1.83,1.83,4.36,2.96,7.15,2.96s5.32-1.13,7.15-2.96,2.96-4.36,2.96-7.15c0-.73-.08-1.45-.23-2.14-.08.1-.16.19-.25.28l-.05.04c-.56.53-1.31.86-2.14.86s-1.62-.35-2.18-.9c-.56-.56-.9-1.33-.9-2.18s.35-1.62.91-2.18h0c.5-.5,1.17-.83,1.91-.89l-.04-.04c-1.83-1.83-4.36-2.96-7.15-2.96h-.23c.04.14.09.29.14.43.2.53.46,1.03.79,1.5.01.02.02.03.03.05.26.37.46.77.62,1.18.15.4.25.83.3,1.28,0,.04.01.09.01.14.12,1.43-.35,2.78-1.2,3.8-.85,1.03-2.09,1.73-3.52,1.88-.04,0-.09.01-.14.01-1.43.12-2.78-.35-3.8-1.2-1.03-.85-1.73-2.09-1.88-3.52,0-.04-.01-.09-.01-.14-.07-.92.09-1.82.47-2.63.38-.83.98-1.56,1.75-2.11h.01c.97-.69,2.04-1.22,3.16-1.58.52-.16,1.05-.29,1.58-.38-.12-1.72.33-3.37,1.2-4.76.91-1.44,2.28-2.59,3.96-3.22.38-.14.79.06.93.43.14.38-.06.79-.43.93-1.38.51-2.5,1.45-3.24,2.63-.7,1.12-1.07,2.45-.99,3.83.16,0,.32-.01.48-.01,2.98,0,5.7,1.13,7.75,2.98l.07.02ZM24.53,16.15l2.63-.85-3.79-1.56c.48.75.87,1.56,1.16,2.41ZM19.89,17.05c.3.3.7.48,1.16.48s.83-.17,1.13-.45l.03-.03c.3-.3.48-.7.48-1.16,0-.25-.06-.49-.16-.71-.03-.05-.05-.1-.08-.15-.07-.11-.15-.21-.24-.3h0c-.29-.3-.7-.48-1.16-.48s-.86.18-1.16.48h0c-.29.29-.48.7-.48,1.16s.18.86.48,1.16ZM25.16,19.65l1.74-1.18-1.89-.44c.09.53.14,1.07.15,1.62"/>
</svg>