<?xml version="1.0" encoding="UTF-8"?>
<svg id="Layer_1" xmlns="http://www.w3.org/2000/svg" version="1.1" viewBox="0 0 1024 1024">
  <!-- Generator: Adobe Illustrator 30.3.0, SVG Export Plug-In . SVG Version: 2.1.3 Build 182)  -->
  <defs>
    <style>
      .st0 {
        fill: #4a3589;
      }
    </style>
  </defs>
  <path class="st0" d="M293.66,397.42l-.83.56c-14.42,10.45-25.58,24.25-32.74,39.85-7.34,15.98-10.56,33.87-8.87,51.99,2.6,27.91,16.3,52.13,36.34,68.75,20.06,16.65,46.46,25.65,74.41,23.05h.07c27.86-2.62,52.08-16.31,68.69-36.34,16.65-20.07,25.65-46.47,23.05-74.41v-.04c-.81-8.72-2.83-17.42-5.95-25.85-2.99-8.06-6.9-15.64-11.67-22.54l-.65-.86c-10.71-15.12-19.32-31.46-25.65-48.57-2.53-6.83-4.71-13.83-6.52-20.95-12.31,2.07-24.41,5-36.21,8.75-25.97,8.26-50.77,20.57-73.47,36.61h0ZM653.17,388.6l216.78,89.22c9.79,4.02,14.46,15.22,10.44,25-2.22,5.41-6.64,9.26-11.8,10.93l-72.01,23.41,54.92,12.73v.04c4.54,1.04,8.73,3.74,11.56,7.91,5.93,8.75,3.64,20.65-5.11,26.58l-106.32,72.16c-9.07,68.25-40.61,129.41-86.96,175.76-55.39,55.39-131.91,89.65-216.42,89.65s-161.03-34.26-216.42-89.65c-55.38-55.39-89.65-131.91-89.65-216.42,0-5.64.2-11.76.59-18.34.38-6.39.93-12.49,1.63-18.27,1.24-10.54,10.79-18.06,21.32-16.82,3.52.42,6.71,1.76,9.34,3.77l.22.16.15.12.22.17.15.12.2.18.15.13.19.17c1.45,1.32,2.73,2.86,3.76,4.65,19.54,33.5,47.94,59.83,81.13,76.9s71.16,24.84,109.82,21.25c8.57-.8,17.19-2.19,25.78-4.14,8.3-1.88,16.67-4.39,25.02-7.48,9.95-3.65,20.98,1.46,24.63,11.41,3.65,9.95-1.47,20.98-11.41,24.63-9.56,3.54-19.53,6.49-29.83,8.84-10,2.28-20.28,3.91-30.74,4.88-46.08,4.29-91.31-4.97-130.84-25.3-22.98-11.82-44.05-27.39-62.24-46.2,5.04,65.6,33.74,124.59,77.58,168.43,48.42,48.42,115.34,78.38,189.24,78.38s140.82-29.96,189.24-78.38,78.39-115.34,78.39-189.24c0-19.38-2.06-38.27-5.98-56.48-2.03,2.59-4.22,5.05-6.55,7.38l-1.2,1.11c-14.72,14.14-34.66,22.83-56.56,22.83s-42.98-9.15-57.77-23.94c-14.78-14.78-23.93-35.21-23.93-57.76s9.16-42.9,23.97-57.73l-.04-.04c13.21-13.2,30.93-21.92,50.64-23.62l-.98-.99c-48.42-48.43-115.34-78.38-189.24-78.38-2.05,0-4.09.02-6.13.07,1.13,3.84,2.39,7.64,3.79,11.41,5.19,14.03,12.19,27.34,20.84,39.55.29.41.56.83.82,1.25,6.82,9.82,12.29,20.29,16.31,31.16,3.96,10.71,6.62,22.05,7.86,33.76.22,1.17.34,2.38.34,3.62,3.07,37.87-9.25,73.49-31.75,100.62-22.5,27.11-55.22,45.8-92.99,49.82-1.17.22-2.38.34-3.62.34-37.88,3.05-73.5-9.25-100.62-31.76-27.11-22.49-45.8-55.21-49.82-92.98-.22-1.17-.34-2.38-.34-3.62-1.95-24.29,2.48-48.22,12.33-69.65,10.12-22.01,25.88-41.38,46.26-55.81l.09-.06.32-.23c25.65-18.08,53.89-32.03,83.66-41.49,13.68-4.35,27.64-7.74,41.76-10.14-3.06-45.39,8.7-89.19,31.78-125.87,24.01-38.16,60.27-68.62,104.85-85.13,9.95-3.65,20.98,1.46,24.63,11.41s-1.46,20.98-11.41,24.63c-36.41,13.49-66.03,38.36-85.63,69.51-18.62,29.59-28.22,64.85-26.09,101.41,4.26-.18,8.53-.27,12.79-.27,78.81,0,150.67,29.8,204.93,78.73h-.02ZM737.61,515.99l69.53-22.59-100.33-41.29c12.61,19.86,22.99,41.27,30.8,63.88ZM614.99,539.66c7.82,7.83,18.64,12.67,30.59,12.67s22.08-4.49,29.78-11.81l.8-.86c7.82-7.82,12.67-18.64,12.67-30.58,0-6.72-1.51-13.07-4.21-18.72-.69-1.3-1.39-2.59-2.11-3.87-1.78-2.92-3.89-5.6-6.28-7.99l-.07-.07c-7.78-7.78-18.59-12.59-30.58-12.59s-22.77,4.84-30.59,12.67h-.07c-7.78,7.77-12.59,18.59-12.59,30.58s4.84,22.76,12.66,30.58h0ZM754.21,608.58l45.97-31.2-49.97-11.58c2.31,13.96,3.66,28.24,4,42.79"/>
</svg>