<?xml version="1.0" encoding="UTF-8"?>
<svg id="Layer_1" xmlns="http://www.w3.org/2000/svg" version="1.1" viewBox="0 0 360 400">
  <!-- Generator: Adobe Illustrator 30.3.0, SVG Export Plug-In . SVG Version: 2.1.3 Build 182)  -->
  <defs>
    <style>
      .st0 {
        fill: #6b4fbb;
      }
    </style>
  </defs>
  <path class="st0" d="M74.82,144.81l-.4.27c-6.95,5.04-12.32,11.68-15.77,19.19-3.54,7.7-5.08,16.32-4.27,25.05,1.25,13.44,7.85,25.11,17.51,33.12,9.66,8.02,22.38,12.35,35.84,11.1h.03c13.42-1.26,25.09-7.86,33.09-17.51,8.02-9.67,12.35-22.38,11.1-35.85v-.02c-.39-4.2-1.36-8.39-2.87-12.45-1.44-3.88-3.33-7.54-5.62-10.86l-.31-.41c-5.16-7.28-9.31-15.15-12.35-23.39-1.22-3.29-2.27-6.66-3.14-10.09-5.93,1-11.76,2.41-17.44,4.22-12.51,3.98-24.46,9.91-35.39,17.64ZM248,140.56l104.42,42.98c4.72,1.94,6.96,7.33,5.03,12.04-1.07,2.61-3.2,4.46-5.69,5.27l-34.69,11.28,26.45,6.13v.02c2.19.5,4.21,1.8,5.57,3.81,2.85,4.22,1.76,9.95-2.46,12.8l-51.22,34.76c-4.37,32.88-19.56,62.34-41.89,84.67-26.68,26.68-63.54,43.18-104.25,43.18s-77.57-16.51-104.25-43.18C18.36,327.64,1.85,290.78,1.85,250.06c0-2.72.1-5.67.29-8.83.18-3.08.45-6.02.78-8.8.6-5.08,5.2-8.7,10.27-8.1,1.7.2,3.23.85,4.5,1.81l.11.08.07.06.1.08.07.06.1.08.07.06.09.08c.7.64,1.31,1.38,1.81,2.24,9.41,16.14,23.1,28.82,39.08,37.04,15.99,8.22,34.28,11.97,52.9,10.23,4.13-.38,8.28-1.05,12.42-1.99,4-.91,8.03-2.11,12.05-3.6,4.79-1.76,10.11.7,11.86,5.5,1.76,4.79-.71,10.11-5.5,11.86-4.61,1.7-9.41,3.13-14.37,4.26-4.82,1.1-9.77,1.88-14.81,2.35-22.19,2.07-43.98-2.4-63.03-12.19-11.07-5.69-21.22-13.19-29.98-22.25,2.43,31.6,16.25,60.01,37.37,81.13,23.33,23.33,55.56,37.76,91.16,37.76s67.83-14.43,91.16-37.76c23.33-23.33,37.76-55.56,37.76-91.16,0-9.33-.99-18.44-2.88-27.2-.98,1.25-2.03,2.43-3.15,3.55l-.58.53c-7.09,6.81-16.7,11-27.24,11s-20.7-4.41-27.83-11.53c-7.12-7.12-11.53-16.96-11.53-27.82s4.41-20.67,11.55-27.81l-.02-.02c6.36-6.36,14.9-10.56,24.4-11.38l-.47-.48c-23.32-23.33-55.56-37.76-91.16-37.76-.99,0-1.97.01-2.95.04.54,1.85,1.15,3.68,1.83,5.5,2.5,6.76,5.87,13.17,10.04,19.05.14.2.27.4.39.6,3.28,4.73,5.92,9.78,7.86,15.01,1.91,5.16,3.19,10.62,3.79,16.26.11.56.16,1.15.16,1.74,1.48,18.24-4.46,35.4-15.3,48.47-10.84,13.06-26.6,22.06-44.79,24-.56.1-1.15.16-1.74.16-18.25,1.47-35.4-4.46-48.47-15.3-13.06-10.83-22.06-26.59-24-44.79-.11-.56-.16-1.14-.16-1.74-.94-11.7,1.2-23.23,5.94-33.55,4.87-10.6,12.47-19.93,22.28-26.88l.04-.03.15-.11c12.36-8.71,25.96-15.43,40.3-19.99,6.59-2.09,13.32-3.73,20.12-4.88-1.47-21.86,4.19-42.96,15.31-60.63,11.56-18.38,29.03-33.05,50.5-41.01,4.79-1.76,10.11.7,11.86,5.5,1.76,4.79-.7,10.11-5.5,11.86-17.54,6.5-31.81,18.48-41.25,33.48-8.97,14.25-13.59,31.24-12.57,48.85,2.05-.09,4.11-.13,6.16-.13,37.96,0,72.58,14.35,98.72,37.93ZM288.68,201.92l33.49-10.88-48.33-19.89c6.07,9.57,11.08,19.88,14.84,30.77ZM229.61,213.32c3.77,3.77,8.98,6.1,14.74,6.1s10.63-2.16,14.35-5.69l.39-.41c3.77-3.77,6.1-8.98,6.1-14.73,0-3.24-.73-6.3-2.03-9.02-.33-.63-.67-1.25-1.01-1.86-.86-1.4-1.87-2.7-3.02-3.85l-.03-.03c-3.75-3.75-8.96-6.07-14.73-6.07s-10.97,2.33-14.74,6.1h-.03c-3.75,3.74-6.07,8.95-6.07,14.73s2.33,10.96,6.1,14.73ZM296.68,246.52l22.15-15.03-24.07-5.58c1.11,6.73,1.76,13.6,1.93,20.61"/>
</svg>